<?xml version="1.0" encoding="UTF-8"?>
<svg viewBox="0 0 366.05777 347.94235" xmlns="http://www.w3.org/2000/svg">
 <g transform="translate(-4.4711 -111.03)">
  <path d="m40.896 112.9h293.21a34.55 34.55 0 0 1 34.55 34.55v275.09a34.55 34.55 0 0 1 -34.55 34.55h-293.21a34.55 34.55 0 0 1 -34.55 -34.55v-275.09a34.55 34.55 0 0 1 34.55 -34.55" fill="#fff" stroke="#000" stroke-linecap="round" stroke-linejoin="round" stroke-width="3.75"/>
  <path transform="matrix(.96692 0 0 1.0352 4.0628e-6 -22.853)" d="m311.49 301.6c0.01158 75.622-65.619 136.93-146.58 136.93s-146.59-61.309-146.58-136.93c-0.01158-75.622 65.619-136.93 146.58-136.93s146.59 61.309 146.58 136.93z"/>
  <path transform="matrix(.91978 0 0 .98474 7.7737 -7.6311)" d="m142.21 436.86c-37.426-5.4787-71.127-24.278-94.038-52.456l116.73-82.804-22.696 135.26z" fill="#969696"/>
  <path transform="matrix(.91978 0 0 .98474 7.7737 -7.6311)" d="m175.74 165.07c36.097 2.5002 69.926 17.386 94.974 41.792l-105.81 94.745 10.84-136.54z" fill="#969696"/>
  <path transform="matrix(.34631 0 0 .37077 102.34 177.55)" d="m311.49 301.6c0.01158 75.622-65.619 136.93-146.58 136.93s-146.59-61.309-146.58-136.93c-0.01158-75.622 65.619-136.93 146.58-136.93s146.59 61.309 146.58 136.93z" fill="#fff" stroke="#000" stroke-linecap="round" stroke-linejoin="round" stroke-width="13.954"/>
  <path transform="matrix(.050251 0 0 .0538 151.16 273.14)" d="m311.49 301.6c0.01158 75.622-65.619 136.93-146.58 136.93s-146.59-61.309-146.58-136.93c-0.01158-75.622 65.619-136.93 146.58-136.93s146.59 61.309 146.58 136.93z"/>
  <path d="m126.52 269.15 29.371-19.821" fill="none" stroke="#000" stroke-width="5"/>
  <path d="m121.74 293.75 58.741-39.642" fill="none" stroke="#000" stroke-width="5"/>
  <path d="m156.25 313.21 29.371-19.821" fill="none" stroke="#000" stroke-width="5"/>
  <path transform="matrix(.99372 -.1119 .1119 .99372 -35.467 21.59)" d="m333.25 184.94-82.219 139.94-57 24.75 10.281 21.781 16.125-8.3438 15.656 26.312 7.9062-3.5938-8.4375-30.531 28.938-14.969 87.969-142.91-19.219-12.438z" fill="#969696" fill-rule="evenodd" stroke="#fff" stroke-linecap="round" stroke-linejoin="round" stroke-width="3.75"/>
  <g transform="matrix(.99994 -.011145 .011145 .99994 -16.329 -10.332)" fill="#969696" fill-rule="evenodd" stroke="#000">
   <path d="m332.81 177.55-30.508 66.186 7.9092 32.756 42.943-88.52-20.345-10.422z" stroke-linecap="round" stroke-linejoin="round" stroke-width="3.75"/>
   <path d="m305.13 241.86-4.2973 10.303 5.263 28.894 5.348-11.65-6.3137-27.547z" stroke="none"/>
  </g>
  <path transform="matrix(.41232,-.91104,.91104,.41232,0,0)" d="m-24.628 330.94h23.506a12 12 0 0 1 12 12v37.902a12 12 0 0 1 -12 12h-23.506a12 12 0 0 1 -12 -12v-37.902a12 12 0 0 1 12 -12" fill="#969696" stroke="#000" stroke-linecap="round" stroke-linejoin="round" stroke-width="3.75"/>
  <path transform="matrix(1.0451 0 0 1.0451 -2.8581 5.3258)" d="m291.51 400.19c0.00526 8.3518-6.7637 15.125-15.115 15.125s-15.121-6.7732-15.115-15.125c-0.00526-8.3518 6.7637-15.125 15.115-15.125s15.121 6.7732 15.115 15.125z" fill="#969696" stroke="#000" stroke-linecap="round" stroke-linejoin="round" stroke-width="3.5882"/>
  <path transform="matrix(1.0427 0 0 1 43.406 22.691)" d="m291.51 400.19c0.00526 8.3518-6.7637 15.125-15.115 15.125s-15.121-6.7732-15.115-15.125c-0.00526-8.3518 6.7637-15.125 15.115-15.125s15.121 6.7732 15.115 15.125z" fill="#969696" stroke="#000" stroke-linecap="round" stroke-linejoin="round" stroke-width="3.6724"/>
  <path d="m328.92 308.88h14.539v67.284h-14.539z" fill="#969696" stroke="#000" stroke-linecap="round" stroke-linejoin="round" stroke-width="3.75"/>
  <path transform="matrix(.8232 0 0 .78946 109.16 9.5971)" d="m291.51 400.19c0.00526 8.3518-6.7637 15.125-15.115 15.125s-15.121-6.7732-15.115-15.125c-0.00526-8.3518 6.7637-15.125 15.115-15.125s15.121 6.7732 15.115 15.125z" stroke="#000" stroke-linecap="round" stroke-linejoin="round" stroke-width="4.6517"/>
 </g>
</svg>
